<?xml version="1.0" encoding="UTF-8" standalone="no"?>
<!-- Created with Inkscape (http://www.inkscape.org/) -->

<svg
   xmlns:dc="http://purl.org/dc/elements/1.1/"
   xmlns:cc="http://creativecommons.org/ns#"
   xmlns:rdf="http://www.w3.org/1999/02/22-rdf-syntax-ns#"
   xmlns:svg="http://www.w3.org/2000/svg"
   xmlns="http://www.w3.org/2000/svg"
   xmlns:xlink="http://www.w3.org/1999/xlink"
   xmlns:sodipodi="http://sodipodi.sourceforge.net/DTD/sodipodi-0.dtd"
   xmlns:inkscape="http://www.inkscape.org/namespaces/inkscape"
   width="665"
   height="665"
   id="svg2"
   version="1.1"
   inkscape:version="0.48.4 r9939"
   sodipodi:docname="road_layout.svg">
  <defs
     id="defs4" />
  <sodipodi:namedview
     id="base"
     pagecolor="#ffffff"
     bordercolor="#666666"
     borderopacity="1.0"
     inkscape:pageopacity="0.0"
     inkscape:pageshadow="2"
     inkscape:zoom="1.4"
     inkscape:cx="334.65499"
     inkscape:cy="356.69395"
     inkscape:document-units="px"
     inkscape:current-layer="layer1"
     showgrid="false"
     inkscape:window-width="1920"
     inkscape:window-height="1056"
     inkscape:window-x="0"
     inkscape:window-y="24"
     inkscape:window-maximized="1"
     fit-margin-top="0"
     fit-margin-left="0"
     fit-margin-right="0"
     fit-margin-bottom="0" />
  <metadata
     id="metadata7">
    <rdf:RDF>
      <cc:Work
         rdf:about="">
        <dc:format>image/svg+xml</dc:format>
        <dc:type
           rdf:resource="http://purl.org/dc/dcmitype/StillImage" />
        <dc:title></dc:title>
      </cc:Work>
    </rdf:RDF>
  </metadata>
  <g
     inkscape:label="Layer 1"
     inkscape:groupmode="layer"
     id="layer1"
     transform="translate(-60.571426,12.994931)">
    <rect
       style="fill:#808080;fill-opacity:1;stroke:none"
       id="rect2985"
       width="630"
       height="85.714302"
       x="62.85714"
       y="276.64792" />
    <rect
       style="fill:#ffffff;fill-opacity:1;stroke:none"
       id="rect3773"
       width="35"
       height="12.142858"
       x="60.571426"
       y="313.43365"
       inkscape:tile-cx="78.071426"
       inkscape:tile-cy="319.50508"
       inkscape:tile-w="35"
       inkscape:tile-h="12.142858"
       inkscape:tile-x0="60.571426"
       inkscape:tile-y0="313.43365" />
    <use
       height="1052.3622"
       width="744.09448"
       x="0"
       y="0"
       inkscape:tiled-clone-of="#rect3773"
       xlink:href="#rect3773"
       id="use3941" />
    <use
       height="1052.3622"
       width="744.09448"
       x="0"
       y="0"
       inkscape:tiled-clone-of="#rect3773"
       xlink:href="#rect3773"
       transform="translate(70,0)"
       id="use3943" />
    <use
       height="1052.3622"
       width="744.09448"
       x="0"
       y="0"
       inkscape:tiled-clone-of="#rect3773"
       xlink:href="#rect3773"
       transform="translate(140,0)"
       id="use3945" />
    <use
       height="1052.3622"
       width="744.09448"
       x="0"
       y="0"
       inkscape:tiled-clone-of="#rect3773"
       xlink:href="#rect3773"
       transform="translate(210,0)"
       id="use3947" />
    <use
       height="1052.3622"
       width="744.09448"
       x="0"
       y="0"
       inkscape:tiled-clone-of="#rect3773"
       xlink:href="#rect3773"
       transform="translate(420,0)"
       id="use3953" />
    <use
       height="1052.3622"
       width="744.09448"
       x="0"
       y="0"
       inkscape:tiled-clone-of="#rect3773"
       xlink:href="#rect3773"
       transform="translate(490,0)"
       id="use3955" />
    <use
       height="1052.3622"
       width="744.09448"
       x="0"
       y="0"
       inkscape:tiled-clone-of="#rect3773"
       xlink:href="#rect3773"
       transform="translate(560,0)"
       id="use3957" />
    <use
       height="1052.3622"
       width="744.09448"
       x="0"
       y="0"
       inkscape:tiled-clone-of="#rect3773"
       xlink:href="#rect3773"
       transform="translate(630,0)"
       id="use3959" />
    <rect
       y="-435.92859"
       x="-10.709217"
       height="85.714302"
       width="630"
       id="rect3977"
       style="fill:#808080;fill-opacity:1;stroke:none"
       transform="matrix(0,1,-1,0,0,0)" />
    <rect
       inkscape:tile-y0="313.43365"
       inkscape:tile-x0="60.571426"
       inkscape:tile-h="12.142858"
       inkscape:tile-w="35"
       inkscape:tile-cy="319.50508"
       inkscape:tile-cx="78.071426"
       y="-399.14285"
       x="-12.99493"
       height="12.142858"
       width="35"
       id="rect3979"
       style="fill:#ffffff;fill-opacity:1;stroke:none"
       transform="matrix(0,1,-1,0,0,0)" />
    <use
       height="1052.3622"
       width="744.09448"
       id="use3981"
       xlink:href="#rect3773"
       inkscape:tiled-clone-of="#rect3773"
       y="0"
       x="0"
       transform="matrix(0,1,-1,0,712.5765,-73.566357)" />
    <use
       height="1052.3622"
       width="744.09448"
       id="use3983"
       transform="matrix(0,1,-1,0,712.5765,-3.566357)"
       xlink:href="#rect3773"
       inkscape:tiled-clone-of="#rect3773"
       y="0"
       x="0" />
    <use
       height="1052.3622"
       width="744.09448"
       id="use3985"
       transform="matrix(0,1,-1,0,712.5765,66.433643)"
       xlink:href="#rect3773"
       inkscape:tiled-clone-of="#rect3773"
       y="0"
       x="0" />
    <use
       height="1052.3622"
       width="744.09448"
       id="use3987"
       transform="matrix(0,1,-1,0,712.5765,136.43364)"
       xlink:href="#rect3773"
       inkscape:tiled-clone-of="#rect3773"
       y="0"
       x="0" />
    <use
       height="1052.3622"
       width="744.09448"
       id="use3993"
       transform="matrix(0,1,-1,0,712.5765,346.43364)"
       xlink:href="#rect3773"
       inkscape:tiled-clone-of="#rect3773"
       y="0"
       x="0" />
    <use
       height="1052.3622"
       width="744.09448"
       id="use3995"
       transform="matrix(0,1,-1,0,712.5765,416.43364)"
       xlink:href="#rect3773"
       inkscape:tiled-clone-of="#rect3773"
       y="0"
       x="0" />
    <use
       height="1052.3622"
       width="744.09448"
       id="use3997"
       transform="matrix(0,1,-1,0,712.5765,486.43364)"
       xlink:href="#rect3773"
       inkscape:tiled-clone-of="#rect3773"
       y="0"
       x="0" />
    <use
       height="1052.3622"
       width="744.09448"
       id="use3999"
       transform="matrix(0,1,-1,0,712.5765,556.43364)"
       xlink:href="#rect3773"
       inkscape:tiled-clone-of="#rect3773"
       y="0"
       x="0" />
    <use
       height="1052.3622"
       width="744.09448"
       x="0"
       y="0"
       inkscape:tiled-clone-of="#rect3773"
       xlink:href="#rect3773"
       id="use3941-7"
       transform="matrix(0,1,-1,0,619.00508,221.43361)" />
    <use
       transform="matrix(0,1,-1,0,806.14794,261.43361)"
       id="use4045"
       xlink:href="#rect3773"
       inkscape:tiled-clone-of="#rect3773"
       y="0"
       x="0"
       width="744.09448"
       height="1052.3622" />
    <use
       id="use4047"
       xlink:href="#rect3773"
       inkscape:tiled-clone-of="#rect3773"
       y="0"
       x="0"
       width="744.09448"
       height="1052.3622"
       transform="translate(295,93.571412)" />
    <use
       transform="translate(336.42857,-93.571446)"
       height="1052.3622"
       width="744.09448"
       x="0"
       y="0"
       inkscape:tiled-clone-of="#rect3773"
       xlink:href="#rect3773"
       id="use4049" />
    <path
       style="fill:none;stroke:#ffffff;stroke-width:4;stroke-linecap:butt;stroke-linejoin:miter;stroke-miterlimit:4;stroke-opacity:1;stroke-dasharray:4, 4;stroke-dashoffset:0"
       d="m 344.14286,282.36218 0,74.28572"
       id="path4053"
       inkscape:connector-curvature="0" />
    <path
       inkscape:connector-curvature="0"
       id="path4057"
       d="m 310.14286,282.36218 0,74.28572"
       style="fill:none;stroke:#ffffff;stroke-width:4;stroke-linecap:butt;stroke-linejoin:miter;stroke-miterlimit:4;stroke-opacity:1;stroke-dasharray:4, 4;stroke-dashoffset:0" />
    <path
       inkscape:connector-curvature="0"
       id="path4059"
       d="m 476.14286,282.36218 0,74.28572"
       style="fill:none;stroke:#ffffff;stroke-width:4;stroke-linecap:butt;stroke-linejoin:miter;stroke-miterlimit:4;stroke-opacity:1;stroke-dasharray:4, 4;stroke-dashoffset:0" />
    <path
       style="fill:none;stroke:#ffffff;stroke-width:4;stroke-linecap:butt;stroke-linejoin:miter;stroke-miterlimit:4;stroke-opacity:1;stroke-dasharray:4, 4;stroke-dashoffset:0"
       d="m 442.14286,282.36218 0,74.28572"
       id="path4061"
       inkscape:connector-curvature="0" />
    <path
       style="fill:none;stroke:#ffffff;stroke-width:4;stroke-linecap:butt;stroke-linejoin:miter;stroke-miterlimit:4;stroke-opacity:1;stroke-dasharray:4, 4;stroke-dashoffset:0"
       d="m 430.28572,270.50504 -74.28572,0"
       id="path4063"
       inkscape:connector-curvature="0" />
    <path
       inkscape:connector-curvature="0"
       id="path4065"
       d="m 430.28572,236.50504 -74.28572,0"
       style="fill:none;stroke:#ffffff;stroke-width:4;stroke-linecap:butt;stroke-linejoin:miter;stroke-miterlimit:4;stroke-opacity:1;stroke-dasharray:4, 4;stroke-dashoffset:0" />
    <path
       inkscape:connector-curvature="0"
       id="path4067"
       d="m 430.28572,402.50504 -74.28572,0"
       style="fill:none;stroke:#ffffff;stroke-width:4;stroke-linecap:butt;stroke-linejoin:miter;stroke-miterlimit:4;stroke-opacity:1;stroke-dasharray:4, 4;stroke-dashoffset:0" />
    <path
       style="fill:none;stroke:#ffffff;stroke-width:4;stroke-linecap:butt;stroke-linejoin:miter;stroke-miterlimit:4;stroke-opacity:1;stroke-dasharray:4, 4;stroke-dashoffset:0"
       d="m 430.28572,368.50504 -74.28572,0"
       id="path4069"
       inkscape:connector-curvature="0" />
    <g
       id="g4081"
       transform="translate(177.14286,299.28571)">
      <rect
         y="110.93361"
         x="127.14286"
         height="93.571426"
         width="42.142857"
         id="rect4079"
         style="fill:#484848;fill-opacity:1;stroke:none" />
      <path
         transform="translate(0.71428871,0)"
         d="m 158.57143,132.71933 c 0,6.11458 -4.95685,11.07143 -11.07143,11.07143 -6.11458,0 -11.07143,-4.95685 -11.07143,-11.07143 0,-6.11458 4.95685,-11.07143 11.07143,-11.07143 6.11458,0 11.07143,4.95685 11.07143,11.07143 z"
         sodipodi:ry="11.071429"
         sodipodi:rx="11.071429"
         sodipodi:cy="132.71933"
         sodipodi:cx="147.5"
         id="path4073"
         style="fill:#ff1b1b;fill-opacity:1;stroke:none"
         sodipodi:type="arc" />
      <path
         transform="translate(0.71428871,26)"
         sodipodi:type="arc"
         style="fill:#ffbd1b;fill-opacity:1;stroke:none"
         id="path4075"
         sodipodi:cx="147.5"
         sodipodi:cy="132.71933"
         sodipodi:rx="11.071429"
         sodipodi:ry="11.071429"
         d="m 158.57143,132.71933 c 0,6.11458 -4.95685,11.07143 -11.07143,11.07143 -6.11458,0 -11.07143,-4.95685 -11.07143,-11.07143 0,-6.11458 4.95685,-11.07143 11.07143,-11.07143 6.11458,0 11.07143,4.95685 11.07143,11.07143 z" />
      <path
         d="m 158.57143,132.71933 c 0,6.11458 -4.95685,11.07143 -11.07143,11.07143 -6.11458,0 -11.07143,-4.95685 -11.07143,-11.07143 0,-6.11458 4.95685,-11.07143 11.07143,-11.07143 6.11458,0 11.07143,4.95685 11.07143,11.07143 z"
         sodipodi:ry="11.071429"
         sodipodi:rx="11.071429"
         sodipodi:cy="132.71933"
         sodipodi:cx="147.5"
         id="path4077"
         style="fill:#1bff2e;fill-opacity:1;stroke:none"
         sodipodi:type="arc"
         transform="translate(0.71428871,52)" />
    </g>
    <g
       transform="matrix(1,0,0,-1,313.57143,343.29578)"
       id="g4087">
      <rect
         style="fill:#484848;fill-opacity:1;stroke:none"
         id="rect4089"
         width="42.142857"
         height="93.571426"
         x="127.14286"
         y="110.93361" />
      <path
         sodipodi:type="arc"
         style="fill:#ff1b1b;fill-opacity:1;stroke:none"
         id="path4091"
         sodipodi:cx="147.5"
         sodipodi:cy="132.71933"
         sodipodi:rx="11.071429"
         sodipodi:ry="11.071429"
         d="m 158.57143,132.71933 c 0,6.11458 -4.95685,11.07143 -11.07143,11.07143 -6.11458,0 -11.07143,-4.95685 -11.07143,-11.07143 0,-6.11458 4.95685,-11.07143 11.07143,-11.07143 6.11458,0 11.07143,4.95685 11.07143,11.07143 z"
         transform="translate(0.71428871,0)" />
      <path
         d="m 158.57143,132.71933 c 0,6.11458 -4.95685,11.07143 -11.07143,11.07143 -6.11458,0 -11.07143,-4.95685 -11.07143,-11.07143 0,-6.11458 4.95685,-11.07143 11.07143,-11.07143 6.11458,0 11.07143,4.95685 11.07143,11.07143 z"
         sodipodi:ry="11.071429"
         sodipodi:rx="11.071429"
         sodipodi:cy="132.71933"
         sodipodi:cx="147.5"
         id="path4093"
         style="fill:#ffbd1b;fill-opacity:1;stroke:none"
         sodipodi:type="arc"
         transform="translate(0.71428871,26)" />
      <path
         transform="translate(0.71428871,52)"
         sodipodi:type="arc"
         style="fill:#1bff2e;fill-opacity:1;stroke:none"
         id="path4095"
         sodipodi:cx="147.5"
         sodipodi:cy="132.71933"
         sodipodi:rx="11.071429"
         sodipodi:ry="11.071429"
         d="m 158.57143,132.71933 c 0,6.11458 -4.95685,11.07143 -11.07143,11.07143 -6.11458,0 -11.07143,-4.95685 -11.07143,-11.07143 0,-6.11458 4.95685,-11.07143 11.07143,-11.07143 6.11458,0 11.07143,4.95685 11.07143,11.07143 z" />
    </g>
    <g
       transform="matrix(0,-1,1,0,369.78068,534.50503)"
       id="g4097">
      <rect
         style="fill:#484848;fill-opacity:1;stroke:none"
         id="rect4099"
         width="42.142857"
         height="93.571426"
         x="127.14286"
         y="110.93361" />
      <path
         sodipodi:type="arc"
         style="fill:#ff1b1b;fill-opacity:1;stroke:none"
         id="path4101"
         sodipodi:cx="147.5"
         sodipodi:cy="132.71933"
         sodipodi:rx="11.071429"
         sodipodi:ry="11.071429"
         d="m 158.57143,132.71933 c 0,6.11458 -4.95685,11.07143 -11.07143,11.07143 -6.11458,0 -11.07143,-4.95685 -11.07143,-11.07143 0,-6.11458 4.95685,-11.07143 11.07143,-11.07143 6.11458,0 11.07143,4.95685 11.07143,11.07143 z"
         transform="translate(0.71428871,0)" />
      <path
         d="m 158.57143,132.71933 c 0,6.11458 -4.95685,11.07143 -11.07143,11.07143 -6.11458,0 -11.07143,-4.95685 -11.07143,-11.07143 0,-6.11458 4.95685,-11.07143 11.07143,-11.07143 6.11458,0 11.07143,4.95685 11.07143,11.07143 z"
         sodipodi:ry="11.071429"
         sodipodi:rx="11.071429"
         sodipodi:cy="132.71933"
         sodipodi:cx="147.5"
         id="path4103"
         style="fill:#ffbd1b;fill-opacity:1;stroke:none"
         sodipodi:type="arc"
         transform="translate(0.71428871,26)" />
      <path
         transform="translate(0.71428871,52)"
         sodipodi:type="arc"
         style="fill:#1bff2e;fill-opacity:1;stroke:none"
         id="path4105"
         sodipodi:cx="147.5"
         sodipodi:cy="132.71933"
         sodipodi:rx="11.071429"
         sodipodi:ry="11.071429"
         d="m 158.57143,132.71933 c 0,6.11458 -4.95685,11.07143 -11.07143,11.07143 -6.11458,0 -11.07143,-4.95685 -11.07143,-11.07143 0,-6.11458 4.95685,-11.07143 11.07143,-11.07143 6.11458,0 11.07143,4.95685 11.07143,11.07143 z" />
    </g>
    <g
       transform="matrix(0,1,-1,0,414.50504,103.79075)"
       id="g4107">
      <rect
         style="fill:#484848;fill-opacity:1;stroke:none"
         id="rect4109"
         width="42.142857"
         height="93.571426"
         x="127.14286"
         y="110.93361" />
      <path
         sodipodi:type="arc"
         style="fill:#ff1b1b;fill-opacity:1;stroke:none"
         id="path4111"
         sodipodi:cx="147.5"
         sodipodi:cy="132.71933"
         sodipodi:rx="11.071429"
         sodipodi:ry="11.071429"
         d="m 158.57143,132.71933 c 0,6.11458 -4.95685,11.07143 -11.07143,11.07143 -6.11458,0 -11.07143,-4.95685 -11.07143,-11.07143 0,-6.11458 4.95685,-11.07143 11.07143,-11.07143 6.11458,0 11.07143,4.95685 11.07143,11.07143 z"
         transform="translate(0.71428871,0)" />
      <path
         d="m 158.57143,132.71933 c 0,6.11458 -4.95685,11.07143 -11.07143,11.07143 -6.11458,0 -11.07143,-4.95685 -11.07143,-11.07143 0,-6.11458 4.95685,-11.07143 11.07143,-11.07143 6.11458,0 11.07143,4.95685 11.07143,11.07143 z"
         sodipodi:ry="11.071429"
         sodipodi:rx="11.071429"
         sodipodi:cy="132.71933"
         sodipodi:cx="147.5"
         id="path4113"
         style="fill:#ffbd1b;fill-opacity:1;stroke:none"
         sodipodi:type="arc"
         transform="translate(0.71428871,26)" />
      <path
         transform="translate(0.71428871,52)"
         sodipodi:type="arc"
         style="fill:#1bff2e;fill-opacity:1;stroke:none"
         id="path4115"
         sodipodi:cx="147.5"
         sodipodi:cy="132.71933"
         sodipodi:rx="11.071429"
         sodipodi:ry="11.071429"
         d="m 158.57143,132.71933 c 0,6.11458 -4.95685,11.07143 -11.07143,11.07143 -6.11458,0 -11.07143,-4.95685 -11.07143,-11.07143 0,-6.11458 4.95685,-11.07143 11.07143,-11.07143 6.11458,0 11.07143,4.95685 11.07143,11.07143 z" />
    </g>
    <g
       id="g4131"
       transform="matrix(0,-0.5932203,0.5932203,0,256.94738,342.97959)">
      <rect
         transform="matrix(0,1,-1,0,0,0)"
         y="-187.07143"
         x="95.933609"
         height="67.14286"
         width="42.142853"
         id="rect4119"
         style="fill:#484848;fill-opacity:1;stroke:none" />
      <path
         transform="matrix(0,1,-1,0,301.21933,-30.494961)"
         d="m 158.57143,132.71933 c 0,6.11458 -4.95685,11.07143 -11.07143,11.07143 -6.11458,0 -11.07143,-4.95685 -11.07143,-11.07143 0,-6.11458 4.95685,-11.07143 11.07143,-11.07143 6.11458,0 11.07143,4.95685 11.07143,11.07143 z"
         sodipodi:ry="11.071429"
         sodipodi:rx="11.071429"
         sodipodi:cy="132.71933"
         sodipodi:cx="147.5"
         id="path4121"
         style="fill:#ff1b1b;fill-opacity:1;stroke:none"
         sodipodi:type="arc" />
      <path
         d="m 158.57143,132.71933 c 0,6.11458 -4.95685,11.07143 -11.07143,11.07143 -6.11458,0 -11.07143,-4.95685 -11.07143,-11.07143 0,-6.11458 4.95685,-11.07143 11.07143,-11.07143 6.11458,0 11.07143,4.95685 11.07143,11.07143 z"
         sodipodi:ry="11.071429"
         sodipodi:rx="11.071429"
         sodipodi:cy="132.71933"
         sodipodi:cx="147.5"
         id="path4125"
         style="fill:#1bff2e;fill-opacity:1;stroke:none"
         sodipodi:type="arc"
         transform="matrix(0,1,-1,0,271.21933,-30.494961)" />
    </g>
    <g
       transform="matrix(0,0.5932203,-0.5932203,0,525.7669,295.86096)"
       id="g4136">
      <rect
         style="fill:#484848;fill-opacity:1;stroke:none"
         id="rect4138"
         width="42.142853"
         height="67.14286"
         x="95.933609"
         y="-187.07143"
         transform="matrix(0,1,-1,0,0,0)" />
      <path
         sodipodi:type="arc"
         style="fill:#ff1b1b;fill-opacity:1;stroke:none"
         id="path4140"
         sodipodi:cx="147.5"
         sodipodi:cy="132.71933"
         sodipodi:rx="11.071429"
         sodipodi:ry="11.071429"
         d="m 158.57143,132.71933 c 0,6.11458 -4.95685,11.07143 -11.07143,11.07143 -6.11458,0 -11.07143,-4.95685 -11.07143,-11.07143 0,-6.11458 4.95685,-11.07143 11.07143,-11.07143 6.11458,0 11.07143,4.95685 11.07143,11.07143 z"
         transform="matrix(0,1,-1,0,301.21933,-30.494961)" />
      <path
         transform="matrix(0,1,-1,0,271.21933,-30.494961)"
         sodipodi:type="arc"
         style="fill:#1bff2e;fill-opacity:1;stroke:none"
         id="path4142"
         sodipodi:cx="147.5"
         sodipodi:cy="132.71933"
         sodipodi:rx="11.071429"
         sodipodi:ry="11.071429"
         d="m 158.57143,132.71933 c 0,6.11458 -4.95685,11.07143 -11.07143,11.07143 -6.11458,0 -11.07143,-4.95685 -11.07143,-11.07143 0,-6.11458 4.95685,-11.07143 11.07143,-11.07143 6.11458,0 11.07143,4.95685 11.07143,11.07143 z" />
    </g>
  </g>
</svg>
